<svg width="90" height="24" viewBox="0 0 90 24" fill="none" xmlns="http://www.w3.org/2000/svg">
<circle cx="78" cy="12" r="12" fill="#FFC22B"/>
<g clip-path="url(#clip0_1351_377)">
<path d="M81.8572 8.14285C81.9361 8.13901 82.0151 8.13708 82.0943 8.13708C82.6149 8.13708 83.1227 8.22018 83.6026 8.37997C84.1052 7.70503 84.3769 6.89006 84.3769 6.03333C84.3769 5.80688 84.1933 5.62317 83.9668 5.62317C83.0885 5.62317 82.2767 5.91209 81.6208 6.3998C81.7801 6.87906 81.863 7.38609 81.863 7.90584C81.863 7.98499 81.8611 8.06403 81.8572 8.14285Z" fill="white"/>
<path d="M74.9983 14.9964C74.9015 14.8994 74.8102 14.7993 74.7236 14.6963L71.1202 18.2998C70.9599 18.4599 70.9599 18.7197 71.1202 18.8798C71.2003 18.9599 71.3052 18.9999 71.4102 18.9999C71.5152 18.9999 71.62 18.9599 71.7001 18.8798L75.3034 15.2765C75.1993 15.1887 75.0983 15.0964 75.0009 14.999C75.0001 14.9981 74.9991 14.9973 74.9983 14.9964Z" fill="white"/>
<path d="M79.8806 8.71928C79.9338 8.95587 79.9681 9.19513 79.9848 9.43503L81.0109 8.40921C81.0319 8.24344 81.0427 8.07542 81.0427 7.9057C81.0427 6.8535 80.633 5.86421 79.8889 5.12016C79.8119 5.04315 79.7077 5 79.5988 5C79.4901 5 79.3857 5.04315 79.3088 5.12016C78.9613 5.46773 78.6868 5.8688 78.4927 6.30481C78.5318 6.33546 78.5695 6.36826 78.605 6.40393C79.2423 7.04117 79.6833 7.84183 79.8806 8.71928Z" fill="white"/>
<path d="M84.8798 10.1112C84.1357 9.36713 83.1464 8.9574 82.0942 8.9574C81.9245 8.9574 81.7564 8.96819 81.5907 8.98933L80.5671 10.0128C81.7116 10.0923 82.7769 10.5759 83.596 11.3951C83.6317 11.4307 83.6645 11.4683 83.6951 11.5073C84.1288 11.3144 84.5279 11.0417 84.8742 10.6967C84.9142 10.6583 84.9466 10.6115 84.9687 10.5582C85.0322 10.4049 84.9971 10.2286 84.8798 10.1112Z" fill="white"/>
<path d="M78.1232 11.2965L79.1436 10.2761C79.2941 9.10597 78.9217 7.88084 78.0249 6.98405C77.9479 6.90715 77.8435 6.86389 77.7348 6.86389C77.6261 6.86389 77.5216 6.90715 77.4447 6.98416C77.0923 7.33653 76.821 7.73964 76.6304 8.1702C76.6688 8.20042 76.7059 8.23279 76.7409 8.26793C77.5601 9.08696 78.0437 10.152 78.1232 11.2965Z" fill="white"/>
<path d="M80.2305 10.8213C80.0607 10.8213 79.8926 10.8321 79.7268 10.8532L78.7031 11.8767C79.8477 11.9562 80.9128 12.4398 81.732 13.2588C81.7677 13.2945 81.8007 13.3322 81.8313 13.3713C82.2672 13.1773 82.6683 12.9027 83.016 12.5552C83.0929 12.4783 83.1361 12.3739 83.1361 12.2652C83.1361 12.1563 83.0929 12.0521 83.016 11.9752C82.2719 11.231 81.2827 10.8213 80.2305 10.8213Z" fill="white"/>
<path d="M77.315 11.6335C77.315 10.5812 76.9052 9.59189 76.1611 8.84795C76.081 8.76784 75.976 8.72778 75.8711 8.72778C75.7661 8.72778 75.6611 8.76784 75.5811 8.84795C74.1431 10.2858 74.0515 12.5681 75.306 14.1138L77.2831 12.1367C77.3041 11.971 77.315 11.8031 77.315 11.6335Z" fill="white"/>
<path d="M78.3665 12.6851C78.1967 12.6851 78.0285 12.696 77.8627 12.717L75.8857 14.694C76.5853 15.2632 77.4519 15.5727 78.3664 15.5728H78.3668C79.4187 15.5728 80.4079 15.1631 81.152 14.419C81.229 14.3421 81.2721 14.2377 81.2721 14.1289C81.2721 14.0202 81.229 13.9158 81.152 13.8389C80.4079 13.0948 79.4187 12.6851 78.3665 12.6851Z" fill="white"/>
</g>
<circle cx="45" cy="12" r="12" fill="#F8593B"/>
<g clip-path="url(#clip1_1351_377)">
<path d="M50.2201 13.1968C50.0597 11.1089 49.0876 9.80044 48.23 8.64582C47.4359 7.5769 46.75 6.65383 46.75 5.29217C46.75 5.18279 46.6888 5.08282 46.5916 5.0327C46.4942 4.98228 46.3771 4.99054 46.2886 5.0549C45.0006 5.97655 43.9259 7.52992 43.5505 9.01206C43.2899 10.0439 43.2554 11.204 43.2506 11.9701C42.0611 11.7161 41.7917 9.93686 41.7888 9.91747C41.7754 9.82519 41.7191 9.74488 41.637 9.70102C41.5541 9.65773 41.4567 9.65459 41.3727 9.69618C41.3103 9.72637 39.8417 10.4726 39.7563 13.452C39.7503 13.5511 39.75 13.6505 39.75 13.7499C39.75 16.6444 42.1053 18.9996 45 18.9996C45.004 18.9998 45.0083 19.0004 45.0117 18.9996C45.0128 18.9996 45.0139 18.9996 45.0154 18.9996C47.903 18.9913 50.25 16.6393 50.25 13.7499C50.25 13.6044 50.2201 13.1968 50.2201 13.1968ZM45 18.4163C44.035 18.4163 43.25 17.5801 43.25 16.5522C43.25 16.5172 43.2497 16.4818 43.2523 16.4385C43.2639 16.0051 43.3463 15.7091 43.4366 15.5123C43.6058 15.8758 43.9082 16.2098 44.3996 16.2098C44.5608 16.2098 44.6913 16.0794 44.6913 15.9182C44.6913 15.503 44.6998 15.0239 44.8032 14.5915C44.8952 14.2082 45.1151 13.8003 45.3937 13.4734C45.5176 13.8977 45.7591 14.2412 45.995 14.5764C46.3325 15.056 46.6814 15.5519 46.7426 16.3975C46.7463 16.4476 46.7501 16.4981 46.7501 16.5522C46.75 17.58 45.965 18.4163 45 18.4163Z" fill="white"/>
</g>
<circle cx="12" cy="12" r="12" fill="#2ECC71"/>
<path d="M15.5037 5C15.5037 5 14.3518 6.11753 13.1061 6.56808C3.88092 9.90485 7.77156 16.4073 7.89849 16.4287C7.89849 16.4287 8.41579 15.5279 9.11459 15.014C13.5489 11.7542 14.4501 8.00198 14.4501 8.00198C14.4501 8.00198 13.4551 12.5171 9.51012 15.3266C8.63882 15.9467 8.04885 17.4738 7.79911 19C7.79911 19 8.41673 18.7505 8.68232 18.6829C8.78588 18.007 9.00241 17.3599 9.36849 16.7818C14.882 17.4382 16.6878 12.9955 16.9237 11.4464C17.4805 7.7876 15.5037 5 15.5037 5Z" fill="white"/>
<defs>
<clipPath id="clip0_1351_377">
<rect width="14" height="14" fill="white" transform="translate(71 5)"/>
</clipPath>
<clipPath id="clip1_1351_377">
<rect width="14" height="14" fill="white" transform="translate(38 5)"/>
</clipPath>
</defs>
</svg>
