<svg width="18" height="18" viewBox="0 0 18 18" fill="none" xmlns="http://www.w3.org/2000/svg">
<path d="M12.7384 16.0575L12.4869 17.0856C11.7324 17.3834 11.1297 17.6101 10.6809 17.7659C10.2316 17.9222 9.70956 18 9.11476 18C8.20135 18 7.49088 17.7762 6.98416 17.3318C6.47745 16.8856 6.22401 16.3201 6.22401 15.6342C6.22401 15.3687 6.2424 15.0955 6.28063 14.8172C6.31919 14.5386 6.38049 14.2249 6.46438 13.8741L7.40732 10.5367C7.4912 10.2171 7.56251 9.9143 7.61962 9.62795C7.67753 9.34338 7.70544 9.08155 7.70544 8.84585C7.70544 8.41964 7.6172 8.12151 7.44152 7.9539C7.26583 7.78677 6.9306 7.70191 6.43292 7.70191C6.18916 7.70191 5.93863 7.74095 5.68325 7.81645C5.42675 7.89227 5.20751 7.96551 5.02344 8.03359L5.27559 7.00467C5.89329 6.75317 6.48374 6.5378 7.04853 6.35905C7.61333 6.17982 8.14698 6.09013 8.65177 6.09013C9.55889 6.09013 10.2589 6.30936 10.7504 6.74784C11.242 7.18664 11.4877 7.75547 11.4877 8.45642C11.4877 8.60145 11.4715 8.85699 11.4369 9.22222C11.403 9.58827 11.3399 9.92366 11.2479 10.2287L10.309 13.5528C10.2321 13.8198 10.1629 14.125 10.1027 14.4685C10.0406 14.8097 10.0109 15.0704 10.0109 15.2452C10.0109 15.6866 10.1093 15.988 10.3066 16.1482C10.5054 16.3084 10.8477 16.3881 11.3339 16.3881C11.5622 16.3881 11.8219 16.3476 12.1105 16.268C12.3983 16.1885 12.6082 16.1186 12.7384 16.0575ZM12.9765 2.10205C12.9765 2.6812 12.7583 3.17582 12.3196 3.58251C11.8821 3.99066 11.3549 4.1949 10.7382 4.1949C10.1195 4.1949 9.59099 3.99066 9.14848 3.58251C8.70678 3.17565 8.48544 2.6812 8.48544 2.10205C8.48544 1.52402 8.70678 1.0286 9.14848 0.61674C9.59018 0.205526 10.1196 0 10.7382 0C11.3547 0 11.8821 0.20601 12.3196 0.61674C12.7586 1.0286 12.9765 1.52418 12.9765 2.10205Z" fill="#374A59"/>
</svg>
