<svg width="88" height="24" viewBox="0 0 88 24" fill="none" xmlns="http://www.w3.org/2000/svg">
<circle cx="76" cy="12" r="12" fill="#007AE9"/>
<g clip-path="url(#clip0_17_1281)">
<path d="M81.6881 16.203L76.9827 11.4975L71.4852 6H71.0555L70.9678 6.22291C70.7363 6.81129 70.6373 7.41307 70.6817 7.96312C70.7324 8.59013 70.9706 9.13296 71.3706 9.53302L75.6623 13.8247L76.2283 13.2586L80.1959 17.6951C80.5906 18.0898 81.27 18.1133 81.6881 17.6951C82.0995 17.2837 82.0995 16.6144 81.6881 16.203Z" fill="white"/>
<path d="M73.6734 12.8306L70.3122 16.1918C69.9008 16.6031 69.9008 17.2725 70.3122 17.6839C70.703 18.0747 71.379 18.1092 71.8043 17.6839L75.1656 14.3227L73.6734 12.8306Z" fill="white"/>
<path d="M81.4903 7.99811L79.5836 9.90475L79.0862 9.40736L80.9929 7.50069L80.4955 7.0033L78.5889 8.90994L78.0915 8.41255L79.9981 6.50591L79.5008 6.00854L77.0138 8.4955C76.7096 8.79974 76.5279 9.20371 76.5022 9.63304C76.4957 9.74181 76.4711 9.8488 76.4302 9.95057L78.0457 11.5661C78.1475 11.5251 78.2545 11.5005 78.3632 11.494C78.7926 11.4684 79.1965 11.2867 79.5008 10.9825L81.9877 8.49552L81.4903 7.99811Z" fill="white"/>
</g>
<circle cx="44" cy="12" r="12" fill="#007AE9"/>
<g clip-path="url(#clip1_17_1281)">
<path d="M44.0328 17.2679C44.9361 17.2679 45.6683 16.5357 45.6683 15.6324C45.6683 14.7291 44.9361 13.9968 44.0328 13.9968C43.1295 13.9968 42.3972 14.7291 42.3972 15.6324C42.3972 16.5357 43.1295 17.2679 44.0328 17.2679Z" fill="white"/>
<path d="M47.9419 11.692C47.9176 11.667 47.892 11.6448 47.867 11.6219L47.7936 11.5524C47.7814 11.5396 47.7679 11.5302 47.7524 11.518C45.6375 9.59663 42.4008 9.67282 40.3823 11.6913L40.1457 11.9286L39.818 12.2563C39.4189 12.6554 39.4209 13.306 39.8207 13.7058C40.2212 14.1069 40.8718 14.1076 41.2702 13.7085L41.8352 13.1435C43.1188 11.8605 45.2067 11.8605 46.4897 13.1428L46.8976 13.5379C47.2926 13.933 47.9372 13.9323 48.3342 13.5345C48.5264 13.343 48.6322 13.0875 48.6329 12.8158C48.6336 12.5455 48.5291 12.29 48.3369 12.0992L47.9419 11.692Z" fill="white"/>
<path d="M50.7282 9.67003L50.3884 9.33025C50.387 9.3289 50.3863 9.32688 50.3836 9.3262L50.1153 9.05653C50.0681 9.01001 50.0169 8.96956 49.963 8.9345C46.5159 5.90812 41.2728 6.00115 37.9356 9.21159C37.9194 9.22642 37.9012 9.23654 37.885 9.25272L37.2715 9.86689C36.9075 10.2303 36.9095 10.8215 37.2756 11.1876C37.641 11.553 38.2322 11.5557 38.5963 11.191L39.2098 10.5782C39.2138 10.5728 39.2172 10.568 39.2213 10.5647C41.92 7.95762 46.201 7.94144 48.9214 10.5114L49.4041 10.9948C49.7674 11.3582 50.36 11.3568 50.7255 10.9914C51.0902 10.6253 51.0915 10.0334 50.7282 9.67003Z" fill="white"/>
</g>
<defs>
<clipPath id="clip0_17_1281">
<rect width="12" height="12" fill="white" transform="translate(70 6)"/>
</clipPath>
<clipPath id="clip1_17_1281">
<rect width="14" height="14" fill="white" transform="translate(37 5)"/>
</clipPath>
</defs>
</svg>
